<?xml version="1.0" encoding="utf-8"?>
<!-- Generator: $$$/GeneralStr/196=Adobe Illustrator 27.6.0, SVG Export Plug-In . SVG Version: 6.00 Build 0)  -->
<svg version="1.1" id="logo" xmlns="http://www.w3.org/2000/svg" xmlns:xlink="http://www.w3.org/1999/xlink" x="0px" y="0px"
	 viewBox="0 0 128 128" style="enable-background:new 0 0 128 128;" xml:space="preserve">
<style type="text/css">
	.st0{fill:#F28500;}
</style>
<ellipse transform="matrix(0.222 -0.975 0.975 0.222 32.3859 118.0378)" class="st0" cx="90.2" cy="38.7" rx="24.5" ry="7.4"/>
<ellipse transform="matrix(0.3922 -0.9199 0.9199 0.3922 18.0675 132.287)" class="st0" cx="109.1" cy="52.5" rx="20.5" ry="6.3"/>
<g>
	<path class="st0" d="M5.6,71.3c0,0-2.3,23.4,9.7,13.1S7.9,71.9,5.6,71.3z"/>
	<ellipse transform="matrix(0.9701 -0.2428 0.2428 0.9701 -7.8349 10.6279)" class="st0" cx="39.2" cy="37.1" rx="6.8" ry="23.4"/>
	<ellipse class="st0" cx="64.9" cy="31.5" rx="6.3" ry="26.8"/>
	<path class="st0" d="M11.3,95.8c0,0,49-67.8,108.8-7.4C120.1,87.8,67.7,46.8,11.3,95.8z"/>
	<ellipse class="st0" cx="64.9" cy="91.8" rx="14.2" ry="15.4"/>
	<path class="st0" d="M17,99.2c0,0,54.7,57.5,89.4-10.8C105.9,88.4,80.8,142.5,17,99.2z"/>
</g>
</svg>
